<svg width="465" height="340" viewBox="0 0 465 340" fill="none" xmlns="http://www.w3.org/2000/svg">
<path d="M142.75 232.5H123V267H75.5V232.5H4.25V197L78.5 88.5H123V196.5H142.75V232.5ZM75.5 175.75C75.5 173.917 75.5 171.583 75.5 168.75C75.6667 165.75 75.75 162.833 75.75 160C75.9167 157.167 76.0833 154.75 76.25 152.75C76.4167 150.75 76.5 149.667 76.5 149.5H75.25C73.5833 153.167 72.0833 156.167 70.75 158.5C69.5833 160.833 67.9167 163.667 65.75 167L46 196.5H75.5V175.75ZM296.734 178C296.734 192.333 295.568 205.167 293.234 216.5C291.068 227.667 287.401 237.25 282.234 245.25C277.234 253.083 270.651 259.083 262.484 263.25C254.318 267.417 244.234 269.5 232.234 269.5C217.401 269.5 205.151 265.833 195.484 258.5C185.984 251.167 178.984 240.667 174.484 227C169.984 213.333 167.734 197 167.734 178C167.734 158.667 169.734 142.167 173.734 128.5C177.901 114.833 184.734 104.333 194.234 97C203.734 89.6667 216.401 86 232.234 86C247.068 86 259.234 89.6667 268.734 97C278.234 104.167 285.234 114.667 289.734 128.5C294.401 142.167 296.734 158.667 296.734 178ZM215.734 178C215.734 189.667 216.151 199.417 216.984 207.25C217.984 215.083 219.651 221 221.984 225C224.318 229 227.734 231 232.234 231C236.734 231 240.151 229.083 242.484 225.25C244.818 221.25 246.401 215.333 247.234 207.5C248.234 199.5 248.734 189.667 248.734 178C248.734 166.167 248.234 156.333 247.234 148.5C246.401 140.5 244.818 134.5 242.484 130.5C240.151 126.5 236.734 124.5 232.234 124.5C227.734 124.5 224.318 126.5 221.984 130.5C219.651 134.5 217.984 140.5 216.984 148.5C216.151 156.333 215.734 166.167 215.734 178ZM460.719 232.5H440.969V267H393.469V232.5H322.219V197L396.469 88.5H440.969V196.5H460.719V232.5ZM393.469 175.75C393.469 173.917 393.469 171.583 393.469 168.75C393.635 165.75 393.719 162.833 393.719 160C393.885 157.167 394.052 154.75 394.219 152.75C394.385 150.75 394.469 149.667 394.469 149.5H393.219C391.552 153.167 390.052 156.167 388.719 158.5C387.552 160.833 385.885 163.667 383.719 167L363.969 196.5H393.469V175.75Z" fill="#FCC000"/>
<mask id="mask0_107_23" style="mask-type:alpha" maskUnits="userSpaceOnUse" x="4" y="86" width="457" height="184">
<path d="M142.75 232.5H123V267H75.5V232.5H4.25V197L78.5 88.5H123V196.5H142.75V232.5ZM75.5 175.75C75.5 173.917 75.5 171.583 75.5 168.75C75.6667 165.75 75.75 162.833 75.75 160C75.9167 157.167 76.0833 154.75 76.25 152.75C76.4167 150.75 76.5 149.667 76.5 149.5H75.25C73.5833 153.167 72.0833 156.167 70.75 158.5C69.5833 160.833 67.9167 163.667 65.75 167L46 196.5H75.5V175.75ZM296.734 178C296.734 192.333 295.568 205.167 293.234 216.5C291.068 227.667 287.401 237.25 282.234 245.25C277.234 253.083 270.651 259.083 262.484 263.25C254.318 267.417 244.234 269.5 232.234 269.5C217.401 269.5 205.151 265.833 195.484 258.5C185.984 251.167 178.984 240.667 174.484 227C169.984 213.333 167.734 197 167.734 178C167.734 158.667 169.734 142.167 173.734 128.5C177.901 114.833 184.734 104.333 194.234 97C203.734 89.6667 216.401 86 232.234 86C247.068 86 259.234 89.6667 268.734 97C278.234 104.167 285.234 114.667 289.734 128.5C294.401 142.167 296.734 158.667 296.734 178ZM215.734 178C215.734 189.667 216.151 199.417 216.984 207.25C217.984 215.083 219.651 221 221.984 225C224.318 229 227.734 231 232.234 231C236.734 231 240.151 229.083 242.484 225.25C244.818 221.25 246.401 215.333 247.234 207.5C248.234 199.5 248.734 189.667 248.734 178C248.734 166.167 248.234 156.333 247.234 148.5C246.401 140.5 244.818 134.5 242.484 130.5C240.151 126.5 236.734 124.5 232.234 124.5C227.734 124.5 224.318 126.5 221.984 130.5C219.651 134.5 217.984 140.5 216.984 148.5C216.151 156.333 215.734 166.167 215.734 178ZM460.719 232.5H440.969V267H393.469V232.5H322.219V197L396.469 88.5H440.969V196.5H460.719V232.5ZM393.469 175.75C393.469 173.917 393.469 171.583 393.469 168.75C393.635 165.75 393.719 162.833 393.719 160C393.885 157.167 394.052 154.75 394.219 152.75C394.385 150.75 394.469 149.667 394.469 149.5H393.219C391.552 153.167 390.052 156.167 388.719 158.5C387.552 160.833 385.885 163.667 383.719 167L363.969 196.5H393.469V175.75Z" fill="#FCC000"/>
</mask>
<g mask="url(#mask0_107_23)">
<path fill-rule="evenodd" clip-rule="evenodd" d="M180 130C187.471 130 194.396 127.659 200.08 123.671C207.834 118.23 225.527 115 235 115V115V115C237.398 115 241.444 120.269 240.83 122.587C240.289 124.634 240 126.783 240 129C240 142.807 251.193 154 265 154C278.807 154 290 142.807 290 129C290 115.193 278.807 104 265 104V104C262.602 104 258.556 98.7309 259.17 96.4131C259.711 94.3665 260 92.2169 260 90C260 76.1929 248.807 65 235 65V65C223.801 65 201.049 64.8628 190.35 61.5555C187.079 60.5444 183.603 60 180 60C160.67 60 145 75.67 145 95C145 114.33 160.67 130 180 130ZM29.5 170V170C41.1438 170 55.6152 176.236 63.6156 184.696C71.3629 192.889 82.3346 198 94.5 198C117.972 198 137 178.972 137 155.5C137 132.028 117.972 113 94.5 113V113C82.8562 113 68.3848 106.764 60.3843 98.3038C52.637 90.1114 41.6654 85 29.5 85C6.0279 85 -13 104.028 -13 127.5C-13 150.972 6.0279 170 29.5 170ZM200 235C200 248.807 188.807 260 175 260C161.193 260 150 248.807 150 235C150 221.193 161.193 210 175 210C188.807 210 200 221.193 200 235ZM390 120C403.807 120 415 108.807 415 95C415 81.1929 403.807 70 390 70C376.193 70 365 81.1929 365 95C365 108.807 376.193 120 390 120ZM415 230C415 243.807 403.807 255 390 255C376.193 255 365 243.807 365 230C365 222.877 367.979 216.45 372.759 211.897C377.129 207.733 380 201.037 380 195V195C380 181.193 391.193 170 405 170C418.807 170 430 181.193 430 195C430 202.123 427.021 208.55 422.241 213.103C417.871 217.267 415 223.963 415 230V230Z" fill="#392200"/>
</g>
</svg>
