<svg width="478" height="348" viewBox="0 0 478 348" fill="none" xmlns="http://www.w3.org/2000/svg">
<path d="M86 150C96 150 105.083 152.25 113.25 156.75C121.417 161.25 127.917 167.75 132.75 176.25C137.583 184.75 140 195.167 140 207.5C140 220.833 137.333 232.167 132 241.5C126.667 250.667 118.667 257.667 108 262.5C97.3333 267.167 83.8333 269.5 67.5 269.5C57.1667 269.5 47.75 268.667 39.25 267C30.75 265.333 23.1667 262.917 16.5 259.75V220.25C22.8333 223.083 30.4167 225.667 39.25 228C48.0833 230.333 56.1667 231.5 63.5 231.5C69.5 231.5 74.5 230.667 78.5 229C82.6667 227.333 85.8333 224.833 88 221.5C90.1667 218 91.25 213.833 91.25 209C91.25 202.167 88.75 196.833 83.75 193C78.9167 189.167 71.5833 187.25 61.75 187.25C57.25 187.25 52.8333 187.75 48.5 188.75C44.3333 189.583 40.5833 190.5 37.25 191.5L19.5 182.75L26.25 88.5H128V128.75H67.25L65 152.25C67.6667 151.75 70.3333 151.25 73 150.75C75.8333 150.25 80.1667 150 86 150ZM301.734 178C301.734 192.333 300.568 205.167 298.234 216.5C296.068 227.667 292.401 237.25 287.234 245.25C282.234 253.083 275.651 259.083 267.484 263.25C259.318 267.417 249.234 269.5 237.234 269.5C222.401 269.5 210.151 265.833 200.484 258.5C190.984 251.167 183.984 240.667 179.484 227C174.984 213.333 172.734 197 172.734 178C172.734 158.667 174.734 142.167 178.734 128.5C182.901 114.833 189.734 104.333 199.234 97C208.734 89.6667 221.401 86 237.234 86C252.068 86 264.234 89.6667 273.734 97C283.234 104.167 290.234 114.667 294.734 128.5C299.401 142.167 301.734 158.667 301.734 178ZM220.734 178C220.734 189.667 221.151 199.417 221.984 207.25C222.984 215.083 224.651 221 226.984 225C229.318 229 232.734 231 237.234 231C241.734 231 245.151 229.083 247.484 225.25C249.818 221.25 251.401 215.333 252.234 207.5C253.234 199.5 253.734 189.667 253.734 178C253.734 166.167 253.234 156.333 252.234 148.5C251.401 140.5 249.818 134.5 247.484 130.5C245.151 126.5 241.734 124.5 237.234 124.5C232.734 124.5 229.318 126.5 226.984 130.5C224.651 134.5 222.984 140.5 221.984 148.5C221.151 156.333 220.734 166.167 220.734 178ZM453.969 127.25C453.969 135.75 452.135 143.083 448.469 149.25C444.802 155.25 439.969 160.25 433.969 164.25C428.135 168.083 421.635 171 414.469 173V173.75C428.802 175.417 439.802 179.75 447.469 186.75C455.302 193.583 459.219 203.333 459.219 216C459.219 225.667 456.552 234.583 451.219 242.75C446.052 250.917 437.969 257.417 426.969 262.25C416.135 267.083 402.052 269.5 384.719 269.5C373.219 269.5 363.385 268.667 355.219 267C347.052 265.167 339.135 262.75 331.469 259.75V219.75C339.302 223.75 347.302 226.75 355.469 228.75C363.635 230.583 371.052 231.5 377.719 231.5C389.552 231.5 397.552 229.833 401.719 226.5C406.052 223.167 408.219 218.667 408.219 213C408.219 209 407.135 205.583 404.969 202.75C402.969 199.75 399.219 197.5 393.719 196C388.385 194.5 380.552 193.75 370.219 193.75H359.219V157.5H370.469C379.635 157.5 386.885 156.75 392.219 155.25C397.552 153.583 401.385 151.333 403.719 148.5C406.052 145.667 407.219 142.417 407.219 138.75C407.219 133.917 405.385 130.417 401.719 128.25C398.052 125.917 393.219 124.75 387.219 124.75C381.885 124.75 376.802 125.5 371.969 127C367.302 128.5 363.219 130.167 359.719 132C356.219 133.667 353.552 135.083 351.719 136.25L331.719 104C336.719 100.667 342.052 97.6667 347.719 95C353.552 92.1667 360.219 90 367.719 88.5C375.385 86.8333 384.385 86 394.719 86C413.052 86 427.469 89.6667 437.969 97C448.635 104.333 453.969 114.417 453.969 127.25Z" fill="#FCC000"/>
<path fill-rule="evenodd" clip-rule="evenodd" d="M42.5 145C52.2809 145 62.7095 148.79 70.2031 155.076C77.5872 161.27 87.108 165 97.5 165C120.972 165 140 145.972 140 122.5C140 99.0279 120.972 80 97.5 80C87.7191 80 77.2905 76.2095 69.7969 69.9237C62.4128 63.7298 52.892 60 42.5 60C19.0279 60 0 79.0279 0 102.5C0 125.972 19.0279 145 42.5 145ZM185 130C204.33 130 220 114.33 220 95C220 75.67 204.33 60 185 60C165.67 60 150 75.67 150 95C150 114.33 165.67 130 185 130ZM305 135C305 148.807 293.807 160 280 160C266.193 160 255 148.807 255 135C255 121.193 266.193 110 280 110C293.807 110 305 121.193 305 135ZM180 260C193.807 260 205 248.807 205 235C205 221.193 193.807 210 180 210C166.193 210 155 221.193 155 235C155 248.807 166.193 260 180 260ZM420 95C420 108.807 408.807 120 395 120C381.193 120 370 108.807 370 95C370 81.1929 381.193 70 395 70C408.807 70 420 81.1929 420 95ZM395 255C408.807 255 420 243.807 420 230C420 216.193 408.807 205 395 205C381.193 205 370 216.193 370 230C370 243.807 381.193 255 395 255Z" fill="#392200"/>
<path d="M121.25 164.75L119.802 167.378L119.802 167.378L121.25 164.75ZM140.75 184.25L143.358 182.767L143.358 182.767L140.75 184.25ZM140 249.5L142.593 251.009L142.599 250.999L142.605 250.988L140 249.5ZM116 270.5L117.202 273.248L117.22 273.241L117.238 273.233L116 270.5ZM47.25 275L47.8272 272.056L47.8272 272.056L47.25 275ZM24.5 267.75H21.5V269.646L23.2128 270.46L24.5 267.75ZM24.5 228.25L25.7251 225.512L21.5 223.621V228.25H24.5ZM86.5 237L85.3858 234.215L85.3659 234.223L85.3462 234.231L86.5 237ZM96 229.5L98.5153 231.135L98.5334 231.107L98.5508 231.079L96 229.5ZM91.75 201L89.8858 203.35L89.9051 203.366L89.9247 203.381L91.75 201ZM56.5 196.75L57.0884 199.692L57.1316 199.683L57.1746 199.673L56.5 196.75ZM45.25 199.5L43.9235 202.191L44.9819 202.713L46.112 202.373L45.25 199.5ZM27.5 190.75L24.5077 190.536L24.3635 192.549L26.1735 193.441L27.5 190.75ZM34.25 96.5V93.5H31.4572L31.2577 96.2857L34.25 96.5ZM136 96.5H139V93.5H136V96.5ZM136 136.75V139.75H139V136.75H136ZM75.25 136.75V133.75H72.5235L72.2637 136.464L75.25 136.75ZM73 160.25L70.0137 159.964L69.6336 163.933L73.5529 163.199L73 160.25ZM81 158.75L80.4786 155.796L80.4629 155.798L80.4471 155.801L81 158.75ZM94 161C103.531 161 112.111 163.139 119.802 167.378L122.698 162.122C114.056 157.361 104.469 155 94 155V161ZM119.802 167.378C127.46 171.597 133.569 177.69 138.142 185.733L143.358 182.767C138.265 173.81 131.373 166.903 122.698 162.122L119.802 167.378ZM138.142 185.733C142.66 193.677 145 203.553 145 215.5H151C151 202.78 148.507 191.823 143.358 182.767L138.142 185.733ZM145 215.5C145 228.435 142.414 239.228 137.395 248.012L142.605 250.988C148.252 241.105 151 229.231 151 215.5H145ZM137.407 247.991C132.42 256.563 124.923 263.163 114.762 267.767L117.238 273.233C128.411 268.17 136.914 260.77 142.593 251.009L137.407 247.991ZM114.798 267.752C104.63 272.2 91.5747 274.5 75.5 274.5V280.5C92.092 280.5 106.036 278.134 117.202 273.248L114.798 267.752ZM75.5 274.5C65.3246 274.5 56.1049 273.679 47.8272 272.056L46.6728 277.944C55.3951 279.654 65.0087 280.5 75.5 280.5V274.5ZM47.8272 272.056C39.5315 270.429 32.1928 268.083 25.7872 265.04L23.2128 270.46C30.1405 273.75 37.9685 276.237 46.6728 277.944L47.8272 272.056ZM27.5 267.75V228.25H21.5V267.75H27.5ZM23.2749 230.988C29.7945 233.905 37.5395 236.538 46.4838 238.901L48.0162 233.099C39.2938 230.795 31.8721 228.262 25.7251 225.512L23.2749 230.988ZM46.4838 238.901C55.5087 241.284 63.8539 242.5 71.5 242.5V236.5C64.4795 236.5 56.6579 235.382 48.0162 233.099L46.4838 238.901ZM71.5 242.5C77.754 242.5 83.1766 241.635 87.6538 239.769L85.3462 234.231C81.8234 235.699 77.246 236.5 71.5 236.5V242.5ZM87.6142 239.785C92.2784 237.92 95.9689 235.053 98.5153 231.135L93.4847 227.865C91.6978 230.614 89.0549 232.747 85.3858 234.215L87.6142 239.785ZM98.5508 231.079C101.059 227.027 102.25 222.293 102.25 217H96.25C96.25 221.374 95.2744 224.973 93.4492 227.921L98.5508 231.079ZM102.25 217C102.25 209.325 99.3852 203.073 93.5753 198.619L89.9247 203.381C94.1148 206.593 96.25 211.009 96.25 217H102.25ZM93.6142 198.65C88.0168 194.21 79.8848 192.25 69.75 192.25V198.25C79.2819 198.25 85.8166 200.123 89.8858 203.35L93.6142 198.65ZM69.75 192.25C65.0257 192.25 60.3826 192.775 55.8254 193.827L57.1746 199.673C61.2841 198.725 65.4743 198.25 69.75 198.25V192.25ZM55.9117 193.808C51.672 194.656 47.8285 195.594 44.388 196.627L46.112 202.373C49.3382 201.406 52.9946 200.51 57.0884 199.692L55.9117 193.808ZM46.5765 196.809L28.8265 188.059L26.1735 193.441L43.9235 202.191L46.5765 196.809ZM30.4923 190.964L37.2423 96.7143L31.2577 96.2857L24.5077 190.536L30.4923 190.964ZM34.25 99.5H136V93.5H34.25V99.5ZM133 96.5V136.75H139V96.5H133ZM136 133.75H75.25V139.75H136V133.75ZM72.2637 136.464L70.0137 159.964L75.9863 160.536L78.2363 137.036L72.2637 136.464ZM73.5529 163.199C76.2195 162.699 78.8862 162.199 81.5529 161.699L80.4471 155.801C77.7805 156.301 75.1138 156.801 72.4471 157.301L73.5529 163.199ZM81.5214 161.704C84.085 161.252 88.2019 161 94 161V155C88.1314 155 83.5816 155.248 80.4786 155.796L81.5214 161.704ZM306.234 224.5L303.296 223.895L303.293 223.912L303.289 223.929L306.234 224.5ZM295.234 253.25L292.714 251.622L292.71 251.629L292.706 251.636L295.234 253.25ZM275.484 271.25L276.848 273.922L276.848 273.922L275.484 271.25ZM208.484 266.5L206.651 268.875L206.661 268.882L206.671 268.89L208.484 266.5ZM187.484 235L190.334 234.062L190.334 234.062L187.484 235ZM186.734 136.5L183.865 135.625L183.86 135.641L183.855 135.657L186.734 136.5ZM207.234 105L209.068 107.375L209.068 107.375L207.234 105ZM281.734 105L279.901 107.375L279.914 107.385L279.928 107.395L281.734 105ZM302.734 136.5L299.882 137.428L299.888 137.449L299.895 137.469L302.734 136.5ZM229.984 215.25L227.001 215.567L227.005 215.599L227.009 215.63L229.984 215.25ZM234.984 233L237.576 231.488L237.576 231.488L234.984 233ZM255.484 233.25L258.047 234.81L258.062 234.786L258.076 234.762L255.484 233.25ZM260.234 215.5L257.258 215.128L257.254 215.155L257.251 215.183L260.234 215.5ZM260.234 156.5L257.251 156.811L257.254 156.845L257.259 156.88L260.234 156.5ZM255.484 138.5L252.893 140.012L252.893 140.012L255.484 138.5ZM234.984 138.5L237.576 140.012L237.576 140.012L234.984 138.5ZM229.984 156.5L227.008 156.128L227.004 156.155L227.001 156.183L229.984 156.5ZM306.734 186C306.734 200.176 305.58 212.801 303.296 223.895L309.173 225.105C311.555 213.532 312.734 200.491 312.734 186H306.734ZM303.289 223.929C301.182 234.791 297.637 244 292.714 251.622L297.755 254.878C303.165 246.5 306.954 236.543 309.179 225.071L303.289 223.929ZM292.706 251.636C287.989 259.026 281.805 264.657 274.121 268.578L276.848 273.922C285.497 269.509 292.48 263.141 297.763 254.864L292.706 251.636ZM274.121 268.578C266.486 272.473 256.901 274.5 245.234 274.5V280.5C257.567 280.5 268.149 278.36 276.848 273.922L274.121 268.578ZM245.234 274.5C230.907 274.5 219.335 270.966 210.298 264.11L206.671 268.89C216.967 276.701 229.895 280.5 245.234 280.5V274.5ZM210.318 264.125C201.38 257.226 194.684 247.274 190.334 234.062L184.635 235.938C189.285 250.059 196.589 261.107 206.651 268.875L210.318 264.125ZM190.334 234.062C185.96 220.777 183.734 204.777 183.734 186H177.734C177.734 205.223 180.009 221.889 184.635 235.938L190.334 234.062ZM183.734 186C183.734 166.857 185.717 150.658 189.614 137.343L183.855 135.657C179.752 149.676 177.734 166.476 177.734 186H183.734ZM189.604 137.375C193.625 124.187 200.148 114.26 209.068 107.375L205.401 102.625C195.32 110.407 188.178 121.479 183.865 135.625L189.604 137.375ZM209.068 107.375C217.896 100.56 229.853 97 245.234 97V91C228.95 91 215.572 94.7737 205.401 102.625L209.068 107.375ZM245.234 97C259.564 97 271.04 100.535 279.901 107.375L283.568 102.625C273.428 94.7985 260.571 91 245.234 91V97ZM279.928 107.395C288.837 114.116 295.529 124.047 299.882 137.428L305.587 135.572C300.94 121.286 293.632 110.217 283.541 102.605L279.928 107.395ZM299.895 137.469C304.426 150.738 306.734 166.892 306.734 186H312.734C312.734 166.441 310.376 149.595 305.573 135.531L299.895 137.469ZM225.734 186C225.734 197.727 226.153 207.592 227.001 215.567L232.968 214.933C232.149 207.242 231.734 197.606 231.734 186H225.734ZM227.009 215.63C228.029 223.62 229.762 230.002 232.393 234.512L237.576 231.488C235.54 227.998 233.94 222.546 232.96 214.87L227.009 215.63ZM232.393 234.512C235.245 239.4 239.63 242 245.234 242V236C241.839 236 239.391 234.6 237.576 231.488L232.393 234.512ZM245.234 242C250.778 242 255.167 239.541 258.047 234.81L252.922 231.69C251.135 234.626 248.691 236 245.234 236V242ZM258.076 234.762C260.722 230.225 262.367 223.817 263.218 215.817L257.251 215.183C256.436 222.85 254.913 228.275 252.893 231.738L258.076 234.762ZM263.211 215.872C264.232 207.708 264.734 197.741 264.734 186H258.734C258.734 197.592 258.237 207.292 257.258 215.128L263.211 215.872ZM264.734 186C264.734 174.096 264.232 164.125 263.21 156.12L257.259 156.88C258.237 164.542 258.734 174.238 258.734 186H264.734ZM263.218 156.189C262.369 148.033 260.727 141.533 258.076 136.988L252.893 140.012C254.908 143.467 256.433 148.967 257.251 156.811L263.218 156.189ZM258.076 136.988C255.224 132.1 250.839 129.5 245.234 129.5V135.5C248.63 135.5 251.078 136.9 252.893 140.012L258.076 136.988ZM245.234 129.5C239.63 129.5 235.245 132.1 232.393 136.988L237.576 140.012C239.391 136.9 241.839 135.5 245.234 135.5V129.5ZM232.393 136.988C229.757 141.507 228.026 147.98 227.008 156.128L232.961 156.872C233.943 149.02 235.545 143.493 237.576 140.012L232.393 136.988ZM227.001 156.183C226.153 164.16 225.734 174.108 225.734 186H231.734C231.734 174.226 232.149 164.507 232.968 156.817L227.001 156.183ZM456.469 157.25L459.029 158.814L459.038 158.799L459.047 158.783L456.469 157.25ZM441.969 172.25L443.616 174.757L443.625 174.752L443.633 174.746L441.969 172.25ZM422.469 181L421.662 178.11L419.469 178.723V181H422.469ZM422.469 181.75H419.469V184.421L422.122 184.73L422.469 181.75ZM455.469 194.75L453.446 196.965L453.471 196.988L453.497 197.011L455.469 194.75ZM459.219 250.75L456.707 249.11L456.695 249.128L456.684 249.146L459.219 250.75ZM434.969 270.25L433.762 267.503L433.754 267.507L433.746 267.51L434.969 270.25ZM363.219 275L362.562 277.927L362.59 277.934L362.619 277.939L363.219 275ZM339.469 267.75H336.469V269.798L338.376 270.544L339.469 267.75ZM339.469 227.75L340.833 225.078L336.469 222.85V227.75H339.469ZM363.469 236.75L362.755 239.664L362.783 239.671L362.812 239.677L363.469 236.75ZM409.719 234.5L407.89 232.122L407.867 232.14L407.845 232.157L409.719 234.5ZM412.969 210.75L410.473 212.414L410.527 212.495L410.586 212.572L412.969 210.75ZM401.719 204L400.907 206.888L400.918 206.891L400.929 206.894L401.719 204ZM367.219 201.75H364.219V204.75H367.219V201.75ZM367.219 165.5V162.5H364.219V165.5H367.219ZM400.219 163.25L401.031 166.138L401.072 166.126L401.114 166.113L400.219 163.25ZM411.719 156.5L409.403 154.593L409.403 154.593L411.719 156.5ZM409.719 136.25L408.108 138.781L408.15 138.808L408.193 138.833L409.719 136.25ZM379.969 135L379.08 132.135L379.065 132.139L379.051 132.144L379.969 135ZM367.719 140L369.009 142.709L369.06 142.684L369.111 142.657L367.719 140ZM359.719 144.25L357.169 145.831L358.769 148.41L361.329 146.781L359.719 144.25ZM339.719 112L338.055 109.504L335.639 111.114L337.169 113.581L339.719 112ZM355.719 103L356.996 105.714L357.013 105.707L357.029 105.699L355.719 103ZM375.719 96.5L376.307 99.4417L376.332 99.4368L376.356 99.4315L375.719 96.5ZM445.969 105L444.251 107.46L444.26 107.466L444.269 107.472L445.969 105ZM458.969 135.25C458.969 143.311 457.234 150.093 453.89 155.717L459.047 158.783C463.037 152.073 464.969 144.189 464.969 135.25H458.969ZM453.909 155.686C450.475 161.304 445.951 165.989 440.305 169.754L443.633 174.746C449.986 170.511 455.129 165.196 459.029 158.814L453.909 155.686ZM440.321 169.743C434.763 173.395 428.55 176.188 421.662 178.11L423.275 183.89C430.721 181.812 437.507 178.771 443.616 174.757L440.321 169.743ZM419.469 181V181.75H425.469V181H419.469ZM422.122 184.73C436.068 186.351 446.394 190.527 453.446 196.965L457.492 192.535C449.21 184.973 437.536 180.482 422.815 178.77L422.122 184.73ZM453.497 197.011C460.536 203.151 464.219 211.994 464.219 224H470.219C470.219 210.673 466.068 200.015 457.441 192.489L453.497 197.011ZM464.219 224C464.219 233.079 461.725 241.426 456.707 249.11L461.731 252.39C467.379 243.741 470.219 234.255 470.219 224H464.219ZM456.684 249.146C451.906 256.698 444.349 262.852 433.762 267.503L436.176 272.997C447.589 267.982 456.198 261.136 461.754 252.354L456.684 249.146ZM433.746 267.51C423.433 272.112 409.809 274.5 392.719 274.5V280.5C410.295 280.5 424.838 278.055 436.191 272.99L433.746 267.51ZM392.719 274.5C381.35 274.5 371.729 273.675 363.819 272.061L362.619 277.939C371.041 279.658 381.087 280.5 392.719 280.5V274.5ZM363.876 272.073C355.855 270.272 348.085 267.9 340.562 264.956L338.376 270.544C346.186 273.6 354.249 276.061 362.562 277.927L363.876 272.073ZM342.469 267.75V227.75H336.469V267.75H342.469ZM338.104 230.422C346.135 234.523 354.353 237.606 362.755 239.664L364.182 233.836C356.251 231.894 348.469 228.977 340.833 225.078L338.104 230.422ZM362.812 239.677C371.142 241.547 378.783 242.5 385.719 242.5V236.5C379.321 236.5 372.129 235.619 364.126 233.823L362.812 239.677ZM385.719 242.5C391.758 242.5 396.937 242.076 401.206 241.187C405.444 240.304 408.997 238.919 411.593 236.843L407.845 232.157C406.274 233.414 403.743 234.529 399.982 235.313C396.251 236.09 391.513 236.5 385.719 236.5V242.5ZM411.548 236.878C416.65 232.953 419.219 227.558 419.219 221H413.219C413.219 225.775 411.454 229.38 407.89 232.122L411.548 236.878ZM419.219 221C419.219 216.425 417.967 212.347 415.352 208.928L410.586 212.572C412.304 214.819 413.219 217.575 413.219 221H419.219ZM415.465 209.086C412.886 205.218 408.322 202.691 402.508 201.106L400.929 206.894C406.116 208.309 409.051 210.282 410.473 212.414L415.465 209.086ZM402.531 201.112C396.796 199.499 388.633 198.75 378.219 198.75V204.75C388.471 204.75 395.975 205.501 400.907 206.888L402.531 201.112ZM378.219 198.75H367.219V204.75H378.219V198.75ZM370.219 201.75V165.5H364.219V201.75H370.219ZM367.219 168.5H378.469V162.5H367.219V168.5ZM378.469 168.5C387.756 168.5 395.317 167.745 401.031 166.138L399.407 160.362C394.453 161.755 387.515 162.5 378.469 162.5V168.5ZM401.114 166.113C406.733 164.357 411.184 161.868 414.035 158.407L409.403 154.593C407.587 156.798 404.371 158.809 399.324 160.387L401.114 166.113ZM414.035 158.407C416.81 155.037 418.219 151.113 418.219 146.75H412.219C412.219 149.72 411.294 152.296 409.403 154.593L414.035 158.407ZM418.219 146.75C418.219 141.027 415.963 136.455 411.245 133.667L408.193 138.833C410.807 140.378 412.219 142.806 412.219 146.75H418.219ZM411.329 133.719C407.031 130.984 401.58 129.75 395.219 129.75V135.75C400.857 135.75 405.073 136.85 408.108 138.781L411.329 133.719ZM395.219 129.75C389.6 129.75 384.216 130.541 379.08 132.135L380.858 137.865C385.388 136.459 390.171 135.75 395.219 135.75V129.75ZM379.051 132.144C374.258 133.684 370.01 135.413 366.327 137.342L369.111 142.657C372.428 140.92 376.346 139.316 380.887 137.856L379.051 132.144ZM366.429 137.291C362.89 138.977 360.095 140.455 358.108 141.719L361.329 146.781C363.009 145.712 365.548 144.357 369.009 142.709L366.429 137.291ZM362.268 142.669L342.268 110.419L337.169 113.581L357.169 145.831L362.268 142.669ZM341.383 114.496C346.254 111.248 351.458 108.321 356.996 105.714L354.441 100.286C348.646 103.013 343.183 106.085 338.055 109.504L341.383 114.496ZM357.029 105.699C362.597 102.994 369.014 100.9 376.307 99.4417L375.13 93.5582C367.424 95.0996 360.508 97.3389 354.408 100.301L357.029 105.699ZM376.356 99.4315C383.759 97.8221 392.536 97 402.719 97V91C392.234 91 383.011 91.8446 375.081 93.5685L376.356 99.4315ZM402.719 97C420.692 97 434.429 100.6 444.251 107.46L447.687 102.54C436.508 94.7333 421.412 91 402.719 91V97ZM444.269 107.472C454.13 114.252 458.969 123.415 458.969 135.25H464.969C464.969 121.419 459.141 110.415 447.668 102.528L444.269 107.472Z" fill="#FCC000"/>
</svg>
