<svg width="465" height="340" viewBox="0 0 465 340" fill="none" xmlns="http://www.w3.org/2000/svg">
<path d="M81 150C91 150 100.083 152.25 108.25 156.75C116.417 161.25 122.917 167.75 127.75 176.25C132.583 184.75 135 195.167 135 207.5C135 220.833 132.333 232.167 127 241.5C121.667 250.667 113.667 257.667 103 262.5C92.3333 267.167 78.8333 269.5 62.5 269.5C52.1667 269.5 42.75 268.667 34.25 267C25.75 265.333 18.1667 262.917 11.5 259.75V220.25C17.8333 223.083 25.4167 225.667 34.25 228C43.0833 230.333 51.1667 231.5 58.5 231.5C64.5 231.5 69.5 230.667 73.5 229C77.6667 227.333 80.8333 224.833 83 221.5C85.1667 218 86.25 213.833 86.25 209C86.25 202.167 83.75 196.833 78.75 193C73.9167 189.167 66.5833 187.25 56.75 187.25C52.25 187.25 47.8333 187.75 43.5 188.75C39.3333 189.583 35.5833 190.5 32.25 191.5L14.5 182.75L21.25 88.5H123V128.75H62.25L60 152.25C62.6667 151.75 65.3333 151.25 68 150.75C70.8333 150.25 75.1667 150 81 150ZM296.734 178C296.734 192.333 295.568 205.167 293.234 216.5C291.068 227.667 287.401 237.25 282.234 245.25C277.234 253.083 270.651 259.083 262.484 263.25C254.318 267.417 244.234 269.5 232.234 269.5C217.401 269.5 205.151 265.833 195.484 258.5C185.984 251.167 178.984 240.667 174.484 227C169.984 213.333 167.734 197 167.734 178C167.734 158.667 169.734 142.167 173.734 128.5C177.901 114.833 184.734 104.333 194.234 97C203.734 89.6667 216.401 86 232.234 86C247.068 86 259.234 89.6667 268.734 97C278.234 104.167 285.234 114.667 289.734 128.5C294.401 142.167 296.734 158.667 296.734 178ZM215.734 178C215.734 189.667 216.151 199.417 216.984 207.25C217.984 215.083 219.651 221 221.984 225C224.318 229 227.734 231 232.234 231C236.734 231 240.151 229.083 242.484 225.25C244.818 221.25 246.401 215.333 247.234 207.5C248.234 199.5 248.734 189.667 248.734 178C248.734 166.167 248.234 156.333 247.234 148.5C246.401 140.5 244.818 134.5 242.484 130.5C240.151 126.5 236.734 124.5 232.234 124.5C227.734 124.5 224.318 126.5 221.984 130.5C219.651 134.5 217.984 140.5 216.984 148.5C216.151 156.333 215.734 166.167 215.734 178ZM448.969 127.25C448.969 135.75 447.135 143.083 443.469 149.25C439.802 155.25 434.969 160.25 428.969 164.25C423.135 168.083 416.635 171 409.469 173V173.75C423.802 175.417 434.802 179.75 442.469 186.75C450.302 193.583 454.219 203.333 454.219 216C454.219 225.667 451.552 234.583 446.219 242.75C441.052 250.917 432.969 257.417 421.969 262.25C411.135 267.083 397.052 269.5 379.719 269.5C368.219 269.5 358.385 268.667 350.219 267C342.052 265.167 334.135 262.75 326.469 259.75V219.75C334.302 223.75 342.302 226.75 350.469 228.75C358.635 230.583 366.052 231.5 372.719 231.5C384.552 231.5 392.552 229.833 396.719 226.5C401.052 223.167 403.219 218.667 403.219 213C403.219 209 402.135 205.583 399.969 202.75C397.969 199.75 394.219 197.5 388.719 196C383.385 194.5 375.552 193.75 365.219 193.75H354.219V157.5H365.469C374.635 157.5 381.885 156.75 387.219 155.25C392.552 153.583 396.385 151.333 398.719 148.5C401.052 145.667 402.219 142.417 402.219 138.75C402.219 133.917 400.385 130.417 396.719 128.25C393.052 125.917 388.219 124.75 382.219 124.75C376.885 124.75 371.802 125.5 366.969 127C362.302 128.5 358.219 130.167 354.719 132C351.219 133.667 348.552 135.083 346.719 136.25L326.719 104C331.719 100.667 337.052 97.6667 342.719 95C348.552 92.1667 355.219 90 362.719 88.5C370.385 86.8333 379.385 86 389.719 86C408.052 86 422.469 89.6667 432.969 97C443.635 104.333 448.969 114.417 448.969 127.25Z" fill="#FCC000"/>
<mask id="mask0_107_51" style="mask-type:alpha" maskUnits="userSpaceOnUse" x="8" y="-253" width="447" height="864">
<path d="M81 -191C91 -191 100.083 -188.75 108.25 -184.25C116.417 -179.75 122.917 -173.25 127.75 -164.75C132.583 -156.25 135 -145.833 135 -133.5C135 -120.167 132.333 -108.833 127 -99.5C121.667 -90.3333 113.667 -83.3333 103 -78.5C92.3333 -73.8333 78.8333 -71.5 62.5 -71.5C52.1667 -71.5 42.75 -72.3333 34.25 -74C25.75 -75.6667 18.1667 -78.0833 11.5 -81.25V-120.75C17.8333 -117.917 25.4167 -115.333 34.25 -113C43.0833 -110.667 51.1667 -109.5 58.5 -109.5C64.5 -109.5 69.5 -110.333 73.5 -112C77.6667 -113.667 80.8333 -116.167 83 -119.5C85.1667 -123 86.25 -127.167 86.25 -132C86.25 -138.833 83.75 -144.167 78.75 -148C73.9167 -151.833 66.5833 -153.75 56.75 -153.75C52.25 -153.75 47.8333 -153.25 43.5 -152.25C39.3333 -151.417 35.5833 -150.5 32.25 -149.5L14.5 -158.25L21.25 -252.5H123V-212.25H62.25L60 -188.75C62.6667 -189.25 65.3333 -189.75 68 -190.25C70.8333 -190.75 75.1667 -191 81 -191ZM81 150C91 150 100.083 152.25 108.25 156.75C116.417 161.25 122.917 167.75 127.75 176.25C132.583 184.75 135 195.167 135 207.5C135 220.833 132.333 232.167 127 241.5C121.667 250.667 113.667 257.667 103 262.5C92.3333 267.167 78.8333 269.5 62.5 269.5C52.1667 269.5 42.75 268.667 34.25 267C25.75 265.333 18.1667 262.917 11.5 259.75V220.25C17.8333 223.083 25.4167 225.667 34.25 228C43.0833 230.333 51.1667 231.5 58.5 231.5C64.5 231.5 69.5 230.667 73.5 229C77.6667 227.333 80.8333 224.833 83 221.5C85.1667 218 86.25 213.833 86.25 209C86.25 202.167 83.75 196.833 78.75 193C73.9167 189.167 66.5833 187.25 56.75 187.25C52.25 187.25 47.8333 187.75 43.5 188.75C39.3333 189.583 35.5833 190.5 32.25 191.5L14.5 182.75L21.25 88.5H123V128.75H62.25L60 152.25C62.6667 151.75 65.3333 151.25 68 150.75C70.8333 150.25 75.1667 150 81 150ZM296.734 178C296.734 192.333 295.568 205.167 293.234 216.5C291.068 227.667 287.401 237.25 282.234 245.25C277.234 253.083 270.651 259.083 262.484 263.25C254.318 267.417 244.234 269.5 232.234 269.5C217.401 269.5 205.151 265.833 195.484 258.5C185.984 251.167 178.984 240.667 174.484 227C169.984 213.333 167.734 197 167.734 178C167.734 158.667 169.734 142.167 173.734 128.5C177.901 114.833 184.734 104.333 194.234 97C203.734 89.6667 216.401 86 232.234 86C247.068 86 259.234 89.6667 268.734 97C278.234 104.167 285.234 114.667 289.734 128.5C294.401 142.167 296.734 158.667 296.734 178ZM215.734 178C215.734 189.667 216.151 199.417 216.984 207.25C217.984 215.083 219.651 221 221.984 225C224.318 229 227.734 231 232.234 231C236.734 231 240.151 229.083 242.484 225.25C244.818 221.25 246.401 215.333 247.234 207.5C248.234 199.5 248.734 189.667 248.734 178C248.734 166.167 248.234 156.333 247.234 148.5C246.401 140.5 244.818 134.5 242.484 130.5C240.151 126.5 236.734 124.5 232.234 124.5C227.734 124.5 224.318 126.5 221.984 130.5C219.651 134.5 217.984 140.5 216.984 148.5C216.151 156.333 215.734 166.167 215.734 178ZM448.969 127.25C448.969 135.75 447.135 143.083 443.469 149.25C439.802 155.25 434.969 160.25 428.969 164.25C423.135 168.083 416.635 171 409.469 173V173.75C423.802 175.417 434.802 179.75 442.469 186.75C450.302 193.583 454.219 203.333 454.219 216C454.219 225.667 451.552 234.583 446.219 242.75C441.052 250.917 432.969 257.417 421.969 262.25C411.135 267.083 397.052 269.5 379.719 269.5C368.219 269.5 358.385 268.667 350.219 267C342.052 265.167 334.135 262.75 326.469 259.75V219.75C334.302 223.75 342.302 226.75 350.469 228.75C358.635 230.583 366.052 231.5 372.719 231.5C384.552 231.5 392.552 229.833 396.719 226.5C401.052 223.167 403.219 218.667 403.219 213C403.219 209 402.135 205.583 399.969 202.75C397.969 199.75 394.219 197.5 388.719 196C383.385 194.5 375.552 193.75 365.219 193.75H354.219V157.5H365.469C374.635 157.5 381.885 156.75 387.219 155.25C392.552 153.583 396.385 151.333 398.719 148.5C401.052 145.667 402.219 142.417 402.219 138.75C402.219 133.917 400.385 130.417 396.719 128.25C393.052 125.917 388.219 124.75 382.219 124.75C376.885 124.75 371.802 125.5 366.969 127C362.302 128.5 358.219 130.167 354.719 132C351.219 133.667 348.552 135.083 346.719 136.25L326.719 104C331.719 100.667 337.052 97.6667 342.719 95C348.552 92.1667 355.219 90 362.719 88.5C370.385 86.8333 379.385 86 389.719 86C408.052 86 422.469 89.6667 432.969 97C443.635 104.333 448.969 114.417 448.969 127.25ZM137.75 519C137.75 533.333 136.583 546.167 134.25 557.5C132.083 568.667 128.417 578.25 123.25 586.25C118.25 594.083 111.667 600.083 103.5 604.25C95.3333 608.417 85.25 610.5 73.25 610.5C58.4167 610.5 46.1667 606.833 36.5 599.5C27 592.167 20 581.667 15.5 568C11 554.333 8.75 538 8.75 519C8.75 499.667 10.75 483.167 14.75 469.5C18.9167 455.833 25.75 445.333 35.25 438C44.75 430.667 57.4167 427 73.25 427C88.0833 427 100.25 430.667 109.75 438C119.25 445.167 126.25 455.667 130.75 469.5C135.417 483.167 137.75 499.667 137.75 519ZM56.75 519C56.75 530.667 57.1667 540.417 58 548.25C59 556.083 60.6667 562 63 566C65.3333 570 68.75 572 73.25 572C77.75 572 81.1667 570.083 83.5 566.25C85.8333 562.25 87.4167 556.333 88.25 548.5C89.25 540.5 89.75 530.667 89.75 519C89.75 507.167 89.25 497.333 88.25 489.5C87.4167 481.5 85.8333 475.5 83.5 471.5C81.1667 467.5 77.75 465.5 73.25 465.5C68.75 465.5 65.3333 467.5 63 471.5C60.6667 475.5 59 481.5 58 489.5C57.1667 497.333 56.75 507.167 56.75 519ZM273.984 608H224.984V519.75C224.984 518.083 224.984 515.083 224.984 510.75C224.984 506.417 225.068 501.583 225.234 496.25C225.401 490.917 225.568 486.167 225.734 482C223.568 484.5 221.568 486.667 219.734 488.5C218.068 490.333 216.318 492 214.484 493.5L194.234 510.25L169.234 479.5L230.484 429.5H273.984V608Z" fill="#FCC000"/>
</mask>
<g mask="url(#mask0_107_51)">
<path fill-rule="evenodd" clip-rule="evenodd" d="M180 130C187.471 130 194.396 127.659 200.08 123.671C207.834 118.23 225.527 115 235 115C237.398 115 241.444 120.269 240.83 122.587C240.289 124.634 240 126.783 240 129C240 142.807 251.193 154 265 154C278.807 154 290 142.807 290 129C290 115.193 278.807 104 265 104C262.602 104 258.556 98.7309 259.17 96.4131C259.711 94.3665 260 92.2169 260 90C260 76.1929 248.807 65 235 65C223.801 65 201.049 64.8628 190.35 61.5555C187.079 60.5444 183.603 60 180 60C160.67 60 145 75.67 145 95C145 114.33 160.67 130 180 130ZM29.5 170C41.1438 170 55.6152 176.236 63.6156 184.696C71.3629 192.889 82.3346 198 94.5 198C117.972 198 137 178.972 137 155.5C137 132.028 117.972 113 94.5 113C82.8562 113 68.3848 106.764 60.3843 98.3038C52.637 90.1114 41.6654 85 29.5 85C6.0279 85 -13 104.028 -13 127.5C-13 150.972 6.0279 170 29.5 170ZM200 235C200 248.807 188.807 260 175 260C161.193 260 150 248.807 150 235C150 221.193 161.193 210 175 210C188.807 210 200 221.193 200 235ZM390 120C403.807 120 415 108.807 415 95C415 81.1929 403.807 70 390 70C376.193 70 365 81.1929 365 95C365 108.807 376.193 120 390 120ZM415 230C415 243.807 403.807 255 390 255C376.193 255 365 243.807 365 230C365 222.877 367.979 216.45 372.759 211.897C377.129 207.733 380 201.037 380 195C380 181.193 391.193 170 405 170C418.807 170 430 181.193 430 195C430 202.123 427.021 208.55 422.241 213.103C417.871 217.267 415 223.963 415 230Z" fill="#392200"/>
</g>
</svg>
