<svg width="1000" height="200" viewBox="0 0 1000 200" fill="none" xmlns="http://www.w3.org/2000/svg">
<rect width="1000" height="200" fill="#FCC000"/>
<path d="M68.8744 175C70.5981 168.105 74.7351 164.313 81.9748 158.107C78.2975 157.533 70.5981 154.108 69.2191 145.007C74.1835 145.007 78.6422 144.547 80.2511 144.317L73.0113 139.146C67.2655 139.376 54.9465 139.008 51.6369 135.699C50.8095 129.631 55.8888 124.207 58.5319 122.253C54.7397 118.921 47.7757 109.842 50.2579 100.189C52.7401 102.12 55.1993 101.913 56.1187 101.568C48.6491 92.1454 37.4333 63.4393 52.3264 24C62.8068 36.9626 81.2853 43.6507 89.2145 45.3744C87.3759 42.6164 83.147 37.1694 80.9406 37.4452C93.3515 30.895 103.004 37.79 108.865 41.5822C108.865 35.5146 103.349 30.0906 100.591 28.137C107.946 26.5282 124.862 26.9648 133.687 41.5822C134.239 38.8242 135.066 36.7557 135.411 36.0662C136.56 39.6286 139.617 47.2361 142.651 49.1667C150.58 38.8242 178.504 27.4475 189.536 24C197.81 65.0251 185.055 91.9155 180.573 96.742" stroke="white" stroke-width="3" stroke-linejoin="round"/>
<path d="M163.68 98.1213C170.575 96.7423 185.813 95.0875 191.605 99.5003C183.883 102.534 177.355 107.889 175.057 110.187C179.539 113.405 187.951 122.253 185.744 131.906C176.091 127.769 166.094 132.251 164.025 133.975C165.956 133.975 166.898 134.205 167.128 134.32C163.336 138.801 154.372 141.904 143.34 142.938C149.201 149.833 160.578 165.899 159.199 175" stroke="white" stroke-width="3" stroke-linejoin="round"/>
<path d="M109.899 160.865C108.406 161.67 104.797 163.21 102.315 162.934C103.97 164.589 105.762 165.232 106.452 165.347C105.762 165.347 104.039 165.485 102.66 166.036C103.487 167.415 105.073 168.45 105.762 168.794" stroke="white" stroke-width="2" stroke-linejoin="round"/>
<path d="M93.6963 132.251C97.1438 135.124 105.073 138.664 109.21 129.838C117.139 136.388 126.447 130.528 125.758 126.391" stroke="white" stroke-width="3" stroke-linejoin="round"/>
<path d="M107.894 113.717C104.201 112.697 99.6295 113.344 96.6065 114.115C95.8154 114.316 95.6705 115.319 96.3535 115.766C98.4982 117.171 100.641 118.416 101.748 119.029C101.894 119.11 102.053 119.125 102.2 119.045C102.755 118.746 104.386 117.748 108.078 115.305C108.727 114.876 108.644 113.924 107.894 113.717Z" stroke="white" stroke-width="3" stroke-linejoin="round"/>
<path d="M69.2191 109.855C66.3462 98.5928 65.2889 75.7244 84.0433 74.3454C88.8698 73.9798 92.5431 76.5464 94.8923 83.3082M94.8923 83.3082C96.0114 86.5291 96.4766 90.8025 95.7647 96.4087C94.7305 105.027 91.9725 108.474 89.5593 109.164C87.146 109.855 81.9748 107.785 82.6643 96.0639C83.3538 84.3425 89.5382 80.895 94.8923 83.3082Z" stroke="white" stroke-width="3" stroke-linejoin="round"/>
<path d="M157.82 104.672C158.509 94.4444 154.993 73.7825 135.411 72.9551C130.929 72.6103 123.345 75.0235 120.587 85.0213" stroke="white" stroke-width="3" stroke-linejoin="round"/>
<path d="M142.306 97.4319C142.992 84.3943 139.581 78.5271 134.111 78.4711C134.059 78.4706 134.004 78.4749 133.953 78.4835C127.473 79.555 126.449 85.7549 126.792 96.7424C127.266 111.92 129.55 112.256 133.342 112.601C137.135 112.946 141.616 110.532 142.306 97.4319Z" stroke="white" stroke-width="3" stroke-linejoin="round"/>
<path d="M61.9794 116.393L64.5908 112.357C65.0548 111.64 66.1464 111.797 66.3891 112.616L67.8097 117.411C68.0674 118.281 69.2572 118.385 69.6629 117.574L71.2709 114.358C71.6652 113.569 72.8129 113.64 73.1077 114.471L74.9206 119.58C75.2587 120.533 76.6358 120.439 76.842 119.449L77.3165 117.172C77.5021 116.281 78.6847 116.081 79.153 116.861L81.9748 121.564" stroke="#FFBBBB" stroke-width="2" stroke-linejoin="round"/>
<path d="M137.824 119.15L141.92 114.508C142.413 113.949 143.322 114.106 143.599 114.798L145.077 118.494C145.37 119.226 146.356 119.347 146.817 118.707L151.042 112.84C151.469 112.246 152.368 112.297 152.726 112.935L155.79 118.406C156.196 119.131 157.257 119.074 157.582 118.309L161.426 109.265C161.807 108.37 163.112 108.49 163.323 109.439L164.025 112.6" stroke="#FFBBBB" stroke-width="2" stroke-linejoin="round"/>
<path d="M264.95 55V90H253.35V64.15H242.7V90H231.1V55H264.95ZM291.439 62.15C293.839 62.15 296.039 62.7333 298.039 63.9C300.072 65.0333 301.672 66.6833 302.839 68.85C304.039 71.0167 304.639 73.5167 304.639 76.35C304.639 79.1833 304.039 81.6833 302.839 83.85C301.672 85.9833 300.072 87.6333 298.039 88.8C296.039 89.9333 293.839 90.5 291.439 90.5C288.406 90.5 286.089 89.7167 284.489 88.15V99.7H273.189V62.65H283.939V64.9C285.572 63.0667 288.072 62.15 291.439 62.15ZM288.739 81.7C290.039 81.7 291.106 81.2333 291.939 80.3C292.772 79.3667 293.189 78.05 293.189 76.35C293.189 74.65 292.772 73.3333 291.939 72.4C291.106 71.4333 290.039 70.95 288.739 70.95C287.439 70.95 286.372 71.4333 285.539 72.4C284.706 73.3333 284.289 74.65 284.289 76.35C284.289 78.05 284.706 79.3667 285.539 80.3C286.372 81.2333 287.439 81.7 288.739 81.7ZM310.796 62.65H322.046V75L331.496 62.65H341.896V90H330.646V77.6L321.246 90H310.796V62.65ZM372.923 75.65C375.923 76.7833 377.423 78.9 377.423 82C377.423 84.5 376.44 86.4667 374.473 87.9C372.507 89.3 369.623 90 365.823 90H349.673V62.65H365.023C368.69 62.65 371.54 63.2833 373.573 64.55C375.607 65.7833 376.623 67.5333 376.623 69.8C376.623 71.0667 376.307 72.2 375.673 73.2C375.04 74.2 374.123 75.0167 372.923 75.65ZM359.573 73.45H364.023C365.657 73.45 366.473 72.8 366.473 71.5C366.473 70.8667 366.273 70.4 365.873 70.1C365.507 69.8 364.89 69.65 364.023 69.65H359.573V73.45ZM364.823 83C366.457 83 367.273 82.3167 367.273 80.95C367.273 79.65 366.457 79 364.823 79H359.573V83H364.823ZM412.369 76.3C412.369 76.4667 412.319 77.35 412.219 78.95H393.219C393.619 79.9833 394.285 80.7833 395.219 81.35C396.152 81.8833 397.319 82.15 398.719 82.15C399.919 82.15 400.919 82 401.719 81.7C402.552 81.4 403.452 80.8833 404.419 80.15L410.319 86.1C407.652 89.0333 403.669 90.5 398.369 90.5C395.069 90.5 392.169 89.9 389.669 88.7C387.169 87.4667 385.235 85.7667 383.869 83.6C382.502 81.4333 381.819 79 381.819 76.3C381.819 73.5667 382.485 71.1333 383.819 69C385.185 66.8333 387.035 65.15 389.369 63.95C391.735 62.75 394.385 62.15 397.319 62.15C400.085 62.15 402.602 62.7 404.869 63.8C407.169 64.9 408.985 66.5167 410.319 68.65C411.685 70.7833 412.369 73.3333 412.369 76.3ZM397.419 69.85C396.252 69.85 395.285 70.1667 394.519 70.8C393.752 71.4333 393.252 72.3333 393.019 73.5H401.819C401.585 72.3667 401.085 71.4833 400.319 70.85C399.552 70.1833 398.585 69.85 397.419 69.85ZM444.099 71.45H435.749V90H424.499V71.45H416.149V62.65H444.099V71.45ZM451.821 77.6C453.754 77.6 455.337 78.1833 456.571 79.35C457.804 80.5167 458.421 82.0667 458.421 84C458.421 84.8667 458.304 85.7333 458.071 86.6C457.837 87.4667 457.304 88.7833 456.471 90.55L452.971 98H445.971L448.471 89.55C447.437 89.05 446.637 88.3333 446.071 87.4C445.504 86.4333 445.221 85.3 445.221 84C445.221 82.0667 445.837 80.5167 447.071 79.35C448.304 78.1833 449.887 77.6 451.821 77.6Z" fill="white"/>
<path d="M232.585 141H228.385L233.705 133.23C232.982 133.02 232.293 132.705 231.64 132.285C231.01 131.842 230.497 131.258 230.1 130.535C229.703 129.788 229.505 128.867 229.505 127.77C229.505 125.95 230.135 124.562 231.395 123.605C232.678 122.625 234.37 122.135 236.47 122.135H245.01V141H241.3V133.65H237.24L232.585 141ZM233.11 127.805C233.11 128.808 233.483 129.567 234.23 130.08C234.977 130.57 236.015 130.815 237.345 130.815H241.3V125.005H236.715C235.432 125.005 234.51 125.273 233.95 125.81C233.39 126.347 233.11 127.012 233.11 127.805ZM293.874 141H263.844V116.01H267.624V137.71H276.934V116.01H280.749V137.71H290.094V116.01H293.874V141ZM317.003 141H313.258V125.11H307.938C307.634 128.983 307.214 132.11 306.678 134.49C306.164 136.847 305.464 138.573 304.578 139.67C303.691 140.743 302.548 141.28 301.148 141.28C300.308 141.28 299.643 141.163 299.153 140.93V138.095C299.479 138.212 299.864 138.27 300.308 138.27C301.054 138.27 301.708 137.745 302.268 136.695C302.851 135.622 303.341 133.907 303.738 131.55C304.158 129.17 304.496 126.032 304.753 122.135H317.003V141ZM331.971 121.785C334.444 121.785 336.392 122.555 337.816 124.095C339.239 125.612 339.951 127.688 339.951 130.325V132.355H327.281C327.327 134.292 327.829 135.773 328.786 136.8C329.766 137.827 331.131 138.34 332.881 138.34C334.094 138.34 335.167 138.235 336.101 138.025C337.057 137.792 338.037 137.453 339.041 137.01V140.09C338.084 140.51 337.127 140.825 336.171 141.035C335.214 141.245 334.071 141.35 332.741 141.35C330.897 141.35 329.276 140.988 327.876 140.265C326.499 139.542 325.414 138.468 324.621 137.045C323.851 135.598 323.466 133.825 323.466 131.725C323.466 129.602 323.816 127.805 324.516 126.335C325.239 124.865 326.231 123.745 327.491 122.975C328.774 122.182 330.267 121.785 331.971 121.785ZM331.971 124.655C330.641 124.655 329.567 125.087 328.751 125.95C327.957 126.813 327.491 128.038 327.351 129.625H336.241C336.217 128.155 335.856 126.965 335.156 126.055C334.479 125.122 333.417 124.655 331.971 124.655ZM326.511 117.13C326.511 116.453 326.686 115.975 327.036 115.695C327.409 115.392 327.852 115.24 328.366 115.24C328.879 115.24 329.322 115.392 329.696 115.695C330.069 115.975 330.256 116.453 330.256 117.13C330.256 117.76 330.069 118.238 329.696 118.565C329.322 118.868 328.879 119.02 328.366 119.02C327.852 119.02 327.409 118.868 327.036 118.565C326.686 118.238 326.511 117.76 326.511 117.13ZM333.196 117.13C333.196 116.453 333.371 115.975 333.721 115.695C334.094 115.392 334.537 115.24 335.051 115.24C335.541 115.24 335.972 115.392 336.346 115.695C336.719 115.975 336.906 116.453 336.906 117.13C336.906 117.76 336.719 118.238 336.346 118.565C335.972 118.868 335.541 119.02 335.051 119.02C334.537 119.02 334.094 118.868 333.721 118.565C333.371 118.238 333.196 117.76 333.196 117.13ZM362.64 122.135V141H358.93V125.145H350.04V141H346.33V122.135H362.64ZM377.509 121.785C379.866 121.785 381.627 122.31 382.794 123.36C383.984 124.387 384.579 126.008 384.579 128.225V141H381.954L381.219 138.375H381.079C380.262 139.402 379.399 140.16 378.489 140.65C377.602 141.117 376.366 141.35 374.779 141.35C373.076 141.35 371.664 140.895 370.544 139.985C369.424 139.052 368.864 137.605 368.864 135.645C368.864 133.732 369.587 132.273 371.034 131.27C372.481 130.267 374.709 129.718 377.719 129.625L380.939 129.52V128.47C380.939 127.093 380.624 126.125 379.994 125.565C379.364 124.982 378.477 124.69 377.334 124.69C376.377 124.69 375.456 124.83 374.569 125.11C373.682 125.39 372.831 125.728 372.014 126.125L370.824 123.43C371.711 122.963 372.726 122.578 373.869 122.275C375.036 121.948 376.249 121.785 377.509 121.785ZM378.384 132.005C376.237 132.098 374.744 132.46 373.904 133.09C373.087 133.697 372.679 134.56 372.679 135.68C372.679 136.66 372.971 137.372 373.554 137.815C374.137 138.258 374.896 138.48 375.829 138.48C377.276 138.48 378.477 138.072 379.434 137.255C380.414 136.438 380.904 135.213 380.904 133.58V131.935L378.384 132.005Z" fill="white"/>
<path d="M757.243 187.592C757.595 187.72 757.867 187.908 758.059 188.156C758.259 188.396 758.359 188.68 758.359 189.008C758.359 189.464 758.199 189.856 757.879 190.184C757.559 190.504 757.127 190.748 756.583 190.916C756.039 191.076 755.435 191.156 754.771 191.156C753.643 191.156 752.619 190.988 751.699 190.652L752.383 188.864C753.063 189.112 753.835 189.236 754.699 189.236C754.987 189.236 755.215 189.2 755.383 189.128C755.551 189.056 755.635 188.944 755.635 188.792C755.635 188.664 755.595 188.576 755.515 188.528C755.443 188.472 755.315 188.444 755.131 188.444H753.631V186.932H754.879C755.079 186.932 755.223 186.904 755.311 186.848C755.407 186.792 755.455 186.7 755.455 186.572C755.455 186.444 755.391 186.348 755.263 186.284C755.135 186.22 754.915 186.188 754.603 186.188C754.003 186.188 753.303 186.324 752.503 186.596L751.891 184.88C752.907 184.488 753.879 184.292 754.807 184.292C755.791 184.292 756.599 184.456 757.231 184.784C757.863 185.104 758.179 185.572 758.179 186.188C758.179 186.476 758.095 186.744 757.927 186.992C757.759 187.24 757.531 187.44 757.243 187.592ZM767.983 188.876V192.296H765.475V191H761.851V192.296H759.343V188.876H759.535C759.919 188.876 760.187 188.696 760.339 188.336C760.491 187.968 760.579 187.44 760.603 186.752L760.687 184.436H767.107V188.876H767.983ZM763.039 186.956C763.023 187.46 762.987 187.86 762.931 188.156C762.883 188.444 762.783 188.684 762.631 188.876H764.407V186.548H763.051L763.039 186.956ZM776.276 187.712C776.276 187.752 776.264 187.964 776.24 188.348H771.68C771.776 188.596 771.936 188.788 772.16 188.924C772.384 189.052 772.664 189.116 773 189.116C773.288 189.116 773.528 189.08 773.72 189.008C773.92 188.936 774.136 188.812 774.368 188.636L775.784 190.064C775.144 190.768 774.188 191.12 772.916 191.12C772.124 191.12 771.428 190.976 770.828 190.688C770.228 190.392 769.764 189.984 769.436 189.464C769.108 188.944 768.944 188.36 768.944 187.712C768.944 187.056 769.104 186.472 769.424 185.96C769.752 185.44 770.196 185.036 770.756 184.748C771.324 184.46 771.96 184.316 772.664 184.316C773.328 184.316 773.932 184.448 774.476 184.712C775.028 184.976 775.464 185.364 775.784 185.876C776.112 186.388 776.276 187 776.276 187.712ZM772.688 186.164C772.408 186.164 772.176 186.24 771.992 186.392C771.808 186.544 771.688 186.76 771.632 187.04H773.744C773.688 186.768 773.568 186.556 773.384 186.404C773.2 186.244 772.968 186.164 772.688 186.164ZM781.295 191.12C780.551 191.12 779.883 190.976 779.291 190.688C778.707 190.4 778.247 189.996 777.911 189.476C777.583 188.956 777.419 188.368 777.419 187.712C777.419 187.056 777.583 186.472 777.911 185.96C778.247 185.44 778.707 185.036 779.291 184.748C779.883 184.46 780.551 184.316 781.295 184.316C782.095 184.316 782.779 184.488 783.347 184.832C783.915 185.176 784.307 185.652 784.523 186.26L782.423 187.292C782.167 186.716 781.787 186.428 781.283 186.428C780.963 186.428 780.695 186.54 780.479 186.764C780.271 186.988 780.167 187.304 780.167 187.712C780.167 188.128 780.271 188.448 780.479 188.672C780.695 188.896 780.963 189.008 781.283 189.008C781.787 189.008 782.167 188.72 782.423 188.144L784.523 189.176C784.307 189.784 783.915 190.26 783.347 190.604C782.779 190.948 782.095 191.12 781.295 191.12ZM790.021 186.416C790.901 186.416 791.577 186.608 792.049 186.992C792.521 187.376 792.757 187.92 792.757 188.624C792.757 189.36 792.481 189.94 791.929 190.364C791.385 190.788 790.637 191 789.685 191H785.869V184.436H788.569V186.416H790.021ZM789.409 189.176C789.801 189.176 789.997 188.976 789.997 188.576C789.997 188.192 789.801 188 789.409 188H788.569V189.176H789.409ZM804.655 191L804.643 188.06L803.251 190.484H802.111L800.767 188V191H798.331V184.436H801.199L802.759 187.496L804.523 184.436H807.067L807.091 191H804.655ZM812.334 191.12C811.606 191.12 810.95 190.976 810.366 190.688C809.79 190.392 809.338 189.988 809.01 189.476C808.682 188.956 808.518 188.368 808.518 187.712C808.518 187.056 808.682 186.472 809.01 185.96C809.338 185.44 809.79 185.036 810.366 184.748C810.95 184.46 811.606 184.316 812.334 184.316C813.07 184.316 813.726 184.46 814.302 184.748C814.886 185.036 815.338 185.44 815.658 185.96C815.986 186.472 816.15 187.056 816.15 187.712C816.15 188.368 815.986 188.956 815.658 189.476C815.338 189.988 814.886 190.392 814.302 190.688C813.726 190.976 813.07 191.12 812.334 191.12ZM812.334 189.008C812.646 189.008 812.902 188.896 813.102 188.672C813.302 188.44 813.402 188.12 813.402 187.712C813.402 187.304 813.302 186.988 813.102 186.764C812.902 186.54 812.646 186.428 812.334 186.428C812.022 186.428 811.766 186.54 811.566 186.764C811.366 186.988 811.266 187.304 811.266 187.712C811.266 188.12 811.366 188.44 811.566 188.672C811.766 188.896 812.022 189.008 812.334 189.008ZM824.469 188.816H824.061V191H821.385V188.816H820.953L819.957 191H816.765L818.649 187.616L816.897 184.436H819.753L820.893 186.74H821.385V184.436H824.061V186.74H824.529L825.681 184.436H828.537L826.785 187.616L828.669 191H825.465L824.469 188.816ZM836.62 187.712C836.62 187.752 836.608 187.964 836.584 188.348H832.024C832.12 188.596 832.28 188.788 832.504 188.924C832.728 189.052 833.008 189.116 833.344 189.116C833.632 189.116 833.872 189.08 834.064 189.008C834.264 188.936 834.48 188.812 834.712 188.636L836.128 190.064C835.488 190.768 834.532 191.12 833.26 191.12C832.468 191.12 831.772 190.976 831.172 190.688C830.572 190.392 830.108 189.984 829.78 189.464C829.452 188.944 829.288 188.36 829.288 187.712C829.288 187.056 829.448 186.472 829.768 185.96C830.096 185.44 830.54 185.036 831.1 184.748C831.668 184.46 832.304 184.316 833.008 184.316C833.672 184.316 834.276 184.448 834.82 184.712C835.372 184.976 835.808 185.364 836.128 185.876C836.456 186.388 836.62 187 836.62 187.712ZM833.032 186.164C832.752 186.164 832.52 186.24 832.336 186.392C832.152 186.544 832.032 186.76 831.976 187.04H834.088C834.032 186.768 833.912 186.556 833.728 186.404C833.544 186.244 833.312 186.164 833.032 186.164ZM844.236 186.548H842.232V191H839.532V186.548H837.528V184.436H844.236V186.548ZM854.145 185.168C855.113 185.168 855.865 185.428 856.401 185.948C856.937 186.468 857.205 187.184 857.205 188.096C857.205 188.712 857.037 189.256 856.701 189.728C856.373 190.192 855.921 190.552 855.345 190.808C854.769 191.064 854.125 191.192 853.413 191.192C852.245 191.192 851.301 190.844 850.581 190.148C849.869 189.452 849.513 188.38 849.513 186.932C849.513 184.204 850.729 182.62 853.161 182.18L856.425 181.592L856.785 183.812L854.025 184.304C853.377 184.416 852.909 184.588 852.621 184.82C852.341 185.052 852.169 185.392 852.105 185.84C852.665 185.392 853.345 185.168 854.145 185.168ZM853.413 189.188C853.741 189.188 853.993 189.08 854.169 188.864C854.353 188.648 854.445 188.388 854.445 188.084C854.445 187.748 854.349 187.488 854.157 187.304C853.973 187.12 853.725 187.028 853.413 187.028C853.093 187.028 852.837 187.124 852.645 187.316C852.453 187.5 852.357 187.76 852.357 188.096C852.357 188.416 852.453 188.68 852.645 188.888C852.845 189.088 853.101 189.188 853.413 189.188ZM862.696 186.416C863.568 186.416 864.22 186.608 864.652 186.992C865.092 187.368 865.312 187.912 865.312 188.624C865.312 189.368 865.056 189.952 864.544 190.376C864.032 190.792 863.304 191 862.36 191H858.64V184.436H861.34V186.416H862.696ZM865.708 184.436H868.408V191H865.708V184.436ZM862.084 189.176C862.476 189.176 862.672 188.976 862.672 188.576C862.672 188.192 862.476 188 862.084 188H861.34V189.176H862.084ZM876.495 186.548H874.491V191H871.791V186.548H869.787V184.436H876.495V186.548ZM882.027 186.416C882.907 186.416 883.583 186.608 884.055 186.992C884.527 187.376 884.763 187.92 884.763 188.624C884.763 189.36 884.487 189.94 883.935 190.364C883.391 190.788 882.643 191 881.691 191H877.875V184.436H880.575V186.416H882.027ZM881.415 189.176C881.807 189.176 882.003 188.976 882.003 188.576C882.003 188.192 881.807 188 881.415 188H880.575V189.176H881.415ZM896.553 186.548H894.549V191H891.849V186.548H889.845V184.436H896.553V186.548ZM903.513 187.556C904.233 187.828 904.593 188.336 904.593 189.08C904.593 189.68 904.357 190.152 903.885 190.496C903.413 190.832 902.721 191 901.809 191H897.933V184.436H901.617C902.497 184.436 903.181 184.588 903.669 184.892C904.157 185.188 904.401 185.608 904.401 186.152C904.401 186.456 904.325 186.728 904.173 186.968C904.021 187.208 903.801 187.404 903.513 187.556ZM900.309 187.028H901.377C901.769 187.028 901.965 186.872 901.965 186.56C901.965 186.408 901.917 186.296 901.821 186.224C901.733 186.152 901.585 186.116 901.377 186.116H900.309V187.028ZM901.569 189.32C901.961 189.32 902.157 189.156 902.157 188.828C902.157 188.516 901.961 188.36 901.569 188.36H900.309V189.32H901.569ZM909.464 191.12C908.736 191.12 908.08 190.976 907.496 190.688C906.92 190.392 906.468 189.988 906.14 189.476C905.812 188.956 905.648 188.368 905.648 187.712C905.648 187.056 905.812 186.472 906.14 185.96C906.468 185.44 906.92 185.036 907.496 184.748C908.08 184.46 908.736 184.316 909.464 184.316C910.2 184.316 910.856 184.46 911.432 184.748C912.016 185.036 912.468 185.44 912.788 185.96C913.116 186.472 913.28 187.056 913.28 187.712C913.28 188.368 913.116 188.956 912.788 189.476C912.468 189.988 912.016 190.392 911.432 190.688C910.856 190.976 910.2 191.12 909.464 191.12ZM909.464 189.008C909.776 189.008 910.032 188.896 910.232 188.672C910.432 188.44 910.532 188.12 910.532 187.712C910.532 187.304 910.432 186.988 910.232 186.764C910.032 186.54 909.776 186.428 909.464 186.428C909.152 186.428 908.896 186.54 908.696 186.764C908.496 186.988 908.396 187.304 908.396 187.712C908.396 188.12 908.496 188.44 908.696 188.672C908.896 188.896 909.152 189.008 909.464 189.008ZM921.047 184.436V191H918.647V189.332H917.987L916.919 191H914.051L915.467 188.948C915.051 188.748 914.731 188.48 914.507 188.144C914.291 187.808 914.183 187.416 914.183 186.968C914.183 186.176 914.487 185.556 915.095 185.108C915.703 184.66 916.535 184.436 917.591 184.436H921.047ZM917.651 186.536C917.187 186.536 916.955 186.712 916.955 187.064C916.955 187.264 917.011 187.412 917.123 187.508C917.243 187.596 917.419 187.64 917.651 187.64H918.647V186.536H917.651ZM931.502 184.316C932.078 184.316 932.606 184.456 933.086 184.736C933.574 185.008 933.958 185.404 934.238 185.924C934.526 186.444 934.67 187.044 934.67 187.724C934.67 188.404 934.526 189.004 934.238 189.524C933.958 190.036 933.574 190.432 933.086 190.712C932.606 190.984 932.078 191.12 931.502 191.12C930.774 191.12 930.218 190.932 929.834 190.556V193.328H927.122V184.436H929.702V184.976C930.094 184.536 930.694 184.316 931.502 184.316ZM930.854 189.008C931.166 189.008 931.422 188.896 931.622 188.672C931.822 188.448 931.922 188.132 931.922 187.724C931.922 187.316 931.822 187 931.622 186.776C931.422 186.544 931.166 186.428 930.854 186.428C930.542 186.428 930.286 186.544 930.086 186.776C929.886 187 929.786 187.316 929.786 187.724C929.786 188.132 929.886 188.448 930.086 188.672C930.286 188.896 930.542 189.008 930.854 189.008ZM943.048 187.712C943.048 187.752 943.036 187.964 943.012 188.348H938.452C938.548 188.596 938.708 188.788 938.932 188.924C939.156 189.052 939.436 189.116 939.772 189.116C940.06 189.116 940.3 189.08 940.492 189.008C940.692 188.936 940.908 188.812 941.14 188.636L942.556 190.064C941.916 190.768 940.96 191.12 939.688 191.12C938.896 191.12 938.2 190.976 937.6 190.688C937 190.392 936.536 189.984 936.208 189.464C935.88 188.944 935.716 188.36 935.716 187.712C935.716 187.056 935.876 186.472 936.196 185.96C936.524 185.44 936.968 185.036 937.528 184.748C938.096 184.46 938.732 184.316 939.436 184.316C940.1 184.316 940.704 184.448 941.248 184.712C941.8 184.976 942.236 185.364 942.556 185.876C942.884 186.388 943.048 187 943.048 187.712ZM939.46 186.164C939.18 186.164 938.948 186.24 938.764 186.392C938.58 186.544 938.46 186.76 938.404 187.04H940.516C940.46 186.768 940.34 186.556 940.156 186.404C939.972 186.244 939.74 186.164 939.46 186.164ZM947.851 188.816H947.335V191H944.623V184.436H947.335V186.74H947.923L949.363 184.436H952.219L950.107 187.58L952.351 191H949.159L947.851 188.816ZM960.635 184.436V191H957.923V186.548H956.687L956.651 187.4C956.619 188.248 956.531 188.944 956.387 189.488C956.243 190.032 956.003 190.452 955.667 190.748C955.339 191.036 954.887 191.18 954.311 191.18C953.951 191.18 953.531 191.12 953.051 191L953.159 188.804C953.287 188.82 953.379 188.828 953.435 188.828C953.763 188.828 953.979 188.712 954.083 188.48C954.187 188.24 954.251 187.844 954.275 187.292L954.371 184.436H960.635ZM965.306 184.316C966.458 184.316 967.338 184.576 967.946 185.096C968.554 185.608 968.858 186.4 968.858 187.472V191H966.338V190.136C966.026 190.792 965.406 191.12 964.478 191.12C963.958 191.12 963.514 191.032 963.146 190.856C962.786 190.672 962.51 190.428 962.318 190.124C962.134 189.812 962.042 189.464 962.042 189.08C962.042 188.432 962.29 187.94 962.786 187.604C963.282 187.268 964.034 187.1 965.042 187.1H966.134C966.046 186.588 965.634 186.332 964.898 186.332C964.602 186.332 964.302 186.38 963.998 186.476C963.694 186.564 963.434 186.688 963.218 186.848L962.354 185.06C962.73 184.828 963.182 184.648 963.71 184.52C964.246 184.384 964.778 184.316 965.306 184.316ZM965.294 189.488C965.486 189.488 965.658 189.436 965.81 189.332C965.962 189.228 966.074 189.072 966.146 188.864V188.408H965.474C964.922 188.408 964.646 188.592 964.646 188.96C964.646 189.112 964.702 189.24 964.814 189.344C964.934 189.44 965.094 189.488 965.294 189.488ZM976.887 191L976.875 188.06L975.483 190.484H974.343L972.999 188V191H970.563V184.436H973.431L974.991 187.496L976.755 184.436H979.299L979.323 191H976.887ZM983.979 184.316C985.131 184.316 986.011 184.576 986.619 185.096C987.227 185.608 987.531 186.4 987.531 187.472V191H985.011V190.136C984.699 190.792 984.079 191.12 983.151 191.12C982.631 191.12 982.187 191.032 981.819 190.856C981.459 190.672 981.183 190.428 980.991 190.124C980.807 189.812 980.715 189.464 980.715 189.08C980.715 188.432 980.963 187.94 981.459 187.604C981.955 187.268 982.707 187.1 983.715 187.1H984.807C984.719 186.588 984.307 186.332 983.571 186.332C983.275 186.332 982.975 186.38 982.671 186.476C982.367 186.564 982.107 186.688 981.891 186.848L981.027 185.06C981.403 184.828 981.855 184.648 982.383 184.52C982.919 184.384 983.451 184.316 983.979 184.316ZM983.967 189.488C984.159 189.488 984.331 189.436 984.483 189.332C984.635 189.228 984.747 189.072 984.819 188.864V188.408H984.147C983.595 188.408 983.319 188.592 983.319 188.96C983.319 189.112 983.375 189.24 983.487 189.344C983.607 189.44 983.767 189.488 983.967 189.488Z" fill="white"/>
</svg>
