<svg width="218" height="222" viewBox="0 0 218 222" fill="none" xmlns="http://www.w3.org/2000/svg">
<path d="M37 221C39.5 211 45.5 205.5 56 196.5C50.6667 195.667 39.5 190.7 37.5 177.5C44.7 177.5 51.1667 176.833 53.5 176.5L43 169C34.6667 169.333 16.8 168.8 12 164C10.8 155.2 18.1667 147.333 22 144.5C16.5 139.667 6.39999 126.5 9.99999 112.5C13.6 115.3 17.1667 115 18.5 114.5C7.66667 100.833 -8.6 59.2 13 2C28.2 20.8 55 30.5 66.5 33C63.8333 29 57.7 21.1 54.5 21.5C72.5 12 86.5 22 95 27.5C95 18.7 87 10.8333 83 8C93.6667 5.66667 118.2 6.3 131 27.5C131.8 23.5 133 20.5 133.5 19.5C135.167 24.6667 139.6 35.7 144 38.5C155.5 23.5 196 7 212 2C224 61.5 205.5 100.5 199 107.5" stroke="black" stroke-width="3" stroke-linejoin="round"/>
<path d="M174.5 109.5C184.5 107.5 206.6 105.1 215 111.5C203.8 115.9 194.333 123.667 191 127C197.5 131.667 209.7 144.5 206.5 158.5C192.5 152.5 178 159 175 161.5C177.8 161.5 179.167 161.833 179.5 162C174 168.5 161 173 145 174.5C153.5 184.5 170 207.8 168 221" stroke="black" stroke-width="3" stroke-linejoin="round"/>
<path d="M96.5 200.5C94.3333 201.667 89.1 203.9 85.5 203.5C87.9 205.9 90.5 206.833 91.5 207C90.5 207 88 207.2 86 208C87.2 210 89.5 211.5 90.5 212" stroke="black" stroke-width="2" stroke-linejoin="round"/>
<path d="M73 159C78 163.167 89.5 168.3 95.5 155.5C107 165 120.5 156.5 119.5 150.5" stroke="black" stroke-width="3" stroke-linejoin="round"/>
<path d="M94.3545 132.349C88.5294 130.435 80.9066 131.66 76.3709 132.922C75.5844 133.14 75.4387 134.152 76.1178 134.605C79.5304 136.881 83.0824 138.943 84.7778 139.878C84.9243 139.959 85.0831 139.977 85.2317 139.901C85.954 139.527 88.4388 138.018 94.5243 133.981C95.173 133.551 95.094 132.592 94.3545 132.349Z" stroke="black" stroke-width="3" stroke-linejoin="round"/>
<path d="M37.5 126.517C33.3333 110.184 31.8 77.0169 59 75.0169C66 74.4866 71.3275 78.2091 74.7347 88.016M74.7347 88.016C76.3577 92.6874 77.0325 98.8852 76 107.016C74.5 119.516 70.5 124.515 67 125.516C63.5 126.517 56 123.516 57 106.516C58 89.516 66.9694 84.516 74.7347 88.016Z" stroke="black" stroke-width="3" stroke-linejoin="round"/>
<path d="M166 119C167 104.167 161.9 74.2004 133.5 73.0004C127 72.5004 116 76.0004 112 90.5004" stroke="black" stroke-width="3" stroke-linejoin="round"/>
<path d="M143.5 108.5C144.497 89.5628 139.533 81.0563 131.579 81.0003C131.527 80.9999 131.473 81.0043 131.421 81.0127C121.992 82.5501 120.501 91.5445 121 107.5C121.688 129.512 125 130 130.5 130.5C136 131 142.5 127.5 143.5 108.5Z" stroke="black" stroke-width="3" stroke-linejoin="round"/>
<path d="M27 136L31.3191 129.325C31.7832 128.608 32.8748 128.765 33.1175 129.584L35.7801 138.57C36.0378 139.44 37.2276 139.545 37.6333 138.733L40.949 132.102C41.3433 131.313 42.491 131.384 42.7859 132.215L46.3065 142.137C46.6446 143.089 48.0217 142.996 48.2279 142.006L49.4787 136.002C49.6643 135.111 50.8469 134.911 51.3151 135.692L56 143.5" stroke="#FFBBBB" stroke-width="2" stroke-linejoin="round"/>
<path d="M137 140L143.425 132.718C143.918 132.16 144.827 132.317 145.103 133.008L147.824 139.81C148.117 140.542 149.103 140.663 149.564 140.022L156.583 130.274C157.01 129.68 157.91 129.731 158.267 130.369L163.504 139.722C163.91 140.447 164.972 140.389 165.297 139.624L171.78 124.37C172.161 123.475 173.466 123.595 173.677 124.545L175 130.5" stroke="#FFBBBB" stroke-width="2" stroke-linejoin="round"/>
</svg>
