<svg width="37" height="36" viewBox="0 0 37 36" fill="none" xmlns="http://www.w3.org/2000/svg">
<rect x="0.464355" width="36.0009" height="36.0009" rx="13" fill="#171717"/>
<path d="M12.0318 14.604V16.764H17.2878V19.968H12.0318V24H7.7838V11.4H18.0258V14.604H12.0318Z" fill="#FCC000"/>
<path d="M24.0658 24.288C23.0218 24.288 22.0018 24.174 21.0058 23.946C20.0218 23.706 19.2118 23.388 18.5758 22.992L19.9438 19.896C20.5438 20.244 21.2158 20.526 21.9598 20.742C22.7038 20.946 23.4178 21.048 24.1018 21.048C24.6898 21.048 25.1098 20.994 25.3618 20.886C25.6138 20.766 25.7398 20.592 25.7398 20.364C25.7398 20.1 25.5718 19.902 25.2358 19.77C24.9118 19.638 24.3718 19.494 23.6158 19.338C22.6438 19.134 21.8338 18.918 21.1858 18.69C20.5378 18.45 19.9738 18.066 19.4938 17.538C19.0138 16.998 18.7738 16.272 18.7738 15.36C18.7738 14.568 18.9958 13.848 19.4398 13.2C19.8838 12.552 20.5438 12.042 21.4198 11.67C22.3078 11.298 23.3818 11.112 24.6418 11.112C25.5058 11.112 26.3518 11.208 27.1798 11.4C28.0198 11.58 28.7578 11.85 29.3938 12.21L28.1158 15.288C26.8798 14.664 25.7098 14.352 24.6058 14.352C23.5138 14.352 22.9678 14.616 22.9678 15.144C22.9678 15.396 23.1298 15.588 23.4538 15.72C23.7778 15.84 24.3118 15.972 25.0558 16.116C26.0158 16.296 26.8258 16.506 27.4858 16.746C28.1458 16.974 28.7158 17.352 29.1958 17.88C29.6878 18.408 29.9338 19.128 29.9338 20.04C29.9338 20.832 29.7118 21.552 29.2678 22.2C28.8238 22.836 28.1578 23.346 27.2698 23.73C26.3938 24.102 25.3258 24.288 24.0658 24.288Z" fill="white"/>
</svg>
