<svg width="1033" height="1033" viewBox="0 0 1033 1033" fill="none" xmlns="http://www.w3.org/2000/svg">
<rect width="1033" height="1033" rx="330" fill="white"/>
<path d="M337.805 435V495H483.805V584H337.805V696H219.805V346H504.305V435H337.805Z" fill="#FCC000"/>
<path d="M672.082 704C643.082 704 614.749 700.833 587.082 694.5C559.749 687.833 537.249 679 519.582 668L557.582 582C574.249 591.667 592.915 599.5 613.582 605.5C634.249 611.167 654.082 614 673.082 614C689.415 614 701.082 612.5 708.082 609.5C715.082 606.167 718.582 601.333 718.582 595C718.582 587.667 713.915 582.167 704.582 578.5C695.582 574.833 680.582 570.833 659.582 566.5C632.582 560.833 610.082 554.833 592.082 548.5C574.082 541.833 558.415 531.167 545.082 516.5C531.749 501.5 525.082 481.333 525.082 456C525.082 434 531.249 414 543.582 396C555.915 378 574.249 363.833 598.582 353.5C623.249 343.167 653.082 338 688.082 338C712.082 338 735.582 340.667 758.582 346C781.915 351 802.415 358.5 820.082 368.5L784.582 454C750.249 436.667 717.749 428 687.082 428C656.749 428 641.582 435.333 641.582 450C641.582 457 646.082 462.333 655.082 466C664.082 469.333 678.915 473 699.582 477C726.249 482 748.749 487.833 767.082 494.5C785.415 500.833 801.249 511.333 814.582 526C828.249 540.667 835.082 560.667 835.082 586C835.082 608 828.915 628 816.582 646C804.249 663.667 785.749 677.833 761.082 688.5C736.749 698.833 707.082 704 672.082 704Z" fill="black"/>
</svg>
