<svg width="36" height="36" viewBox="0 0 36 36" fill="none" xmlns="http://www.w3.org/2000/svg">
<rect width="36.0009" height="36.0009" rx="13" fill="white"/>
<path d="M11.5674 14.604V16.764H16.8234V19.968H11.5674V24H7.31944V11.4H17.5614V14.604H11.5674Z" fill="#FCC000"/>
<path d="M23.6014 24.288C22.5574 24.288 21.5374 24.174 20.5414 23.946C19.5574 23.706 18.7474 23.388 18.1114 22.992L19.4794 19.896C20.0794 20.244 20.7514 20.526 21.4954 20.742C22.2394 20.946 22.9534 21.048 23.6374 21.048C24.2254 21.048 24.6454 20.994 24.8974 20.886C25.1494 20.766 25.2754 20.592 25.2754 20.364C25.2754 20.1 25.1074 19.902 24.7714 19.77C24.4474 19.638 23.9074 19.494 23.1514 19.338C22.1794 19.134 21.3694 18.918 20.7214 18.69C20.0734 18.45 19.5094 18.066 19.0294 17.538C18.5494 16.998 18.3094 16.272 18.3094 15.36C18.3094 14.568 18.5314 13.848 18.9754 13.2C19.4194 12.552 20.0794 12.042 20.9554 11.67C21.8434 11.298 22.9174 11.112 24.1774 11.112C25.0414 11.112 25.8874 11.208 26.7154 11.4C27.5554 11.58 28.2934 11.85 28.9294 12.21L27.6514 15.288C26.4154 14.664 25.2454 14.352 24.1414 14.352C23.0494 14.352 22.5034 14.616 22.5034 15.144C22.5034 15.396 22.6654 15.588 22.9894 15.72C23.3134 15.84 23.8474 15.972 24.5914 16.116C25.5514 16.296 26.3614 16.506 27.0214 16.746C27.6814 16.974 28.2514 17.352 28.7314 17.88C29.2234 18.408 29.4694 19.128 29.4694 20.04C29.4694 20.832 29.2474 21.552 28.8034 22.2C28.3594 22.836 27.6934 23.346 26.8054 23.73C25.9294 24.102 24.8614 24.288 23.6014 24.288Z" fill="black"/>
</svg>
