<svg width="52" height="25" viewBox="0 0 52 25" fill="none" xmlns="http://www.w3.org/2000/svg">
<path d="M0.344 24.76V6.4C0.344 5.024 0.6 3.92 1.112 3.088C1.64 2.24 2.352 1.624 3.248 1.24C4.16 0.839999 5.176 0.639999 6.296 0.639999C7.208 0.639999 8.08 0.791999 8.912 1.096C9.744 1.4 10.424 1.896 10.952 2.584C11.48 3.256 11.744 4.152 11.744 5.272C11.744 6.04 11.592 6.704 11.288 7.264C10.984 7.808 10.584 8.248 10.088 8.584C9.608 8.904 9.08 9.128 8.504 9.256V9.352C9.336 9.464 10.064 9.688 10.688 10.024C11.328 10.344 11.824 10.808 12.176 11.416C12.528 12.024 12.704 12.816 12.704 13.792C12.704 14.928 12.472 15.904 12.008 16.72C11.56 17.536 10.944 18.16 10.16 18.592C9.376 19.024 8.488 19.24 7.496 19.24C7.096 19.24 6.784 19.208 6.56 19.144C6.336 19.096 6.128 19.024 5.936 18.928C5.744 18.816 5.496 18.688 5.192 18.544V24.76H0.344ZM6.44 15.544C6.904 15.544 7.264 15.368 7.52 15.016C7.792 14.664 7.928 14.112 7.928 13.36C7.928 12.832 7.848 12.424 7.688 12.136C7.544 11.832 7.344 11.624 7.088 11.512C6.848 11.384 6.568 11.32 6.248 11.32H5.6V7.888H6.032C6.336 7.888 6.56 7.808 6.704 7.648C6.848 7.472 6.944 7.24 6.992 6.952C7.04 6.648 7.064 6.312 7.064 5.944C7.064 5.336 7.008 4.872 6.896 4.552C6.784 4.216 6.536 4.048 6.152 4.048C5.928 4.048 5.744 4.12 5.6 4.264C5.456 4.392 5.352 4.6 5.288 4.888C5.224 5.16 5.192 5.512 5.192 5.944V14.92C5.352 15.128 5.536 15.288 5.744 15.4C5.952 15.496 6.184 15.544 6.44 15.544ZM20.9204 5.488C22.1684 5.488 23.2484 5.712 24.1604 6.16C25.0724 6.608 25.7684 7.28 26.2484 8.176C26.7444 9.072 26.9924 10.2 26.9924 11.56V13.6H19.4564C19.4884 14.288 19.7044 14.856 20.1044 15.304C20.5204 15.752 21.1444 15.976 21.9764 15.976C22.7604 15.976 23.4724 15.896 24.1124 15.736C24.7684 15.576 25.4404 15.32 26.1284 14.968V18.256C25.5364 18.592 24.8644 18.84 24.1124 19C23.3764 19.16 22.4244 19.24 21.2564 19.24C19.9924 19.24 18.8564 19.008 17.8484 18.544C16.8404 18.064 16.0404 17.32 15.4484 16.312C14.8564 15.304 14.5604 14.016 14.5604 12.448C14.5604 10.848 14.8244 9.536 15.3524 8.512C15.8964 7.488 16.6404 6.728 17.5844 6.232C18.5444 5.736 19.6564 5.488 20.9204 5.488ZM21.1364 8.608C20.7044 8.608 20.3444 8.776 20.0564 9.112C19.7684 9.448 19.6004 9.984 19.5524 10.72H22.6724C22.6724 10.32 22.6084 9.968 22.4804 9.664C22.3524 9.344 22.1764 9.088 21.9524 8.896C21.7284 8.704 21.4564 8.608 21.1364 8.608ZM35.8899 15.616C36.2899 15.616 36.6419 15.576 36.9459 15.496C37.2499 15.4 37.5779 15.288 37.9299 15.16V18.496C37.4019 18.704 36.8739 18.88 36.3459 19.024C35.8339 19.168 35.1219 19.24 34.2099 19.24C33.3619 19.24 32.6179 19.104 31.9779 18.832C31.3539 18.56 30.8659 18.096 30.5139 17.44C30.1779 16.768 30.0099 15.832 30.0099 14.632V9.16H28.5459V7.288L30.4899 5.848L31.6899 3.064H34.8819V5.728H37.7379V9.16H34.8819V14.32C34.8819 14.752 34.9619 15.08 35.1219 15.304C35.2979 15.512 35.5539 15.616 35.8899 15.616ZM46.6488 5.488C48.2008 5.488 49.4168 5.904 50.2968 6.736C51.1928 7.568 51.6408 8.752 51.6408 10.288V19H48.3048L47.3688 17.248H47.2728C46.9208 17.712 46.5608 18.096 46.1928 18.4C45.8248 18.688 45.4008 18.896 44.9208 19.024C44.4408 19.168 43.8568 19.24 43.1688 19.24C42.4488 19.24 41.8008 19.088 41.2248 18.784C40.6488 18.464 40.1928 17.992 39.8568 17.368C39.5368 16.728 39.3768 15.92 39.3768 14.944C39.3768 13.52 39.8408 12.464 40.7688 11.776C41.6968 11.072 43.0168 10.688 44.7288 10.624L46.7688 10.552V10.36C46.7688 9.768 46.6488 9.352 46.4088 9.112C46.1848 8.856 45.8728 8.728 45.4728 8.728C45.0408 8.728 44.5128 8.824 43.8888 9.016C43.2648 9.192 42.6408 9.424 42.0168 9.712L40.6968 6.688C41.4648 6.288 42.3288 5.992 43.2888 5.8C44.2648 5.592 45.3848 5.488 46.6488 5.488ZM46.0008 13.12C45.3768 13.152 44.9288 13.304 44.6568 13.576C44.4008 13.832 44.2728 14.2 44.2728 14.68C44.2728 15.128 44.3688 15.464 44.5608 15.688C44.7528 15.896 45.0008 16 45.3048 16C45.7048 16 46.0568 15.824 46.3608 15.472C46.6648 15.12 46.8168 14.664 46.8168 14.104V13.072L46.0008 13.12Z" fill="black"/>
</svg>
