<svg width="52" height="25" viewBox="0 0 52 25" fill="none" xmlns="http://www.w3.org/2000/svg">
<path d="M0.872 24.76V6.328C0.872 5.032 1.104 3.968 1.568 3.136C2.048 2.288 2.72 1.664 3.584 1.264C4.464 0.847999 5.496 0.639999 6.68 0.639999C7.832 0.639999 8.816 0.815999 9.632 1.168C10.448 1.504 11.072 2.016 11.504 2.704C11.952 3.376 12.176 4.224 12.176 5.248C12.176 6.016 12.04 6.68 11.768 7.24C11.512 7.8 11.144 8.248 10.664 8.584C10.2 8.92 9.64 9.152 8.984 9.28V9.352C9.816 9.464 10.536 9.696 11.144 10.048C11.768 10.4 12.248 10.896 12.584 11.536C12.936 12.16 13.112 12.96 13.112 13.936C13.112 15.056 12.856 16.016 12.344 16.816C11.848 17.6 11.176 18.2 10.328 18.616C9.496 19.032 8.568 19.24 7.544 19.24C7.032 19.24 6.608 19.208 6.272 19.144C5.936 19.096 5.624 19.016 5.336 18.904C5.064 18.792 4.768 18.656 4.448 18.496V24.76H0.872ZM6.872 16.384C7.672 16.384 8.296 16.144 8.744 15.664C9.192 15.168 9.416 14.488 9.416 13.624C9.416 12.968 9.28 12.44 9.008 12.04C8.752 11.624 8.424 11.328 8.024 11.152C7.624 10.96 7.208 10.864 6.776 10.864H5.696V8.176H6.56C6.992 8.176 7.36 8.072 7.664 7.864C7.968 7.64 8.2 7.344 8.36 6.976C8.52 6.592 8.6 6.16 8.6 5.68C8.6 4.928 8.408 4.368 8.024 4C7.64 3.616 7.184 3.424 6.656 3.424C6.208 3.424 5.816 3.52 5.48 3.712C5.144 3.904 4.888 4.216 4.712 4.648C4.536 5.064 4.448 5.632 4.448 6.352V15.568C4.848 15.824 5.24 16.024 5.624 16.168C6.008 16.312 6.424 16.384 6.872 16.384ZM21.4595 5.656C22.6755 5.656 23.7155 5.888 24.5795 6.352C25.4595 6.816 26.1395 7.488 26.6195 8.368C27.0995 9.248 27.3395 10.328 27.3395 11.608V13.336H18.8915C18.9235 14.344 19.2195 15.136 19.7795 15.712C20.3555 16.288 21.1475 16.576 22.1555 16.576C23.0035 16.576 23.7715 16.496 24.4595 16.336C25.1475 16.16 25.8595 15.896 26.5955 15.544V18.304C25.9555 18.624 25.2755 18.856 24.5555 19C23.8515 19.16 22.9955 19.24 21.9875 19.24C20.6755 19.24 19.5155 19 18.5075 18.52C17.4995 18.024 16.7075 17.28 16.1315 16.288C15.5555 15.296 15.2675 14.048 15.2675 12.544C15.2675 11.008 15.5235 9.736 16.0355 8.728C16.5635 7.704 17.2915 6.936 18.2195 6.424C19.1475 5.912 20.2275 5.656 21.4595 5.656ZM21.4835 8.2C20.7955 8.2 20.2195 8.424 19.7555 8.872C19.3075 9.32 19.0435 10.016 18.9635 10.96H23.9795C23.9795 10.432 23.8835 9.96 23.6915 9.544C23.5155 9.128 23.2435 8.8 22.8755 8.56C22.5075 8.32 22.0435 8.2 21.4835 8.2ZM35.7592 16.384C36.1592 16.384 36.5432 16.344 36.9112 16.264C37.2792 16.184 37.6472 16.088 38.0152 15.976V18.64C37.6312 18.8 37.1512 18.936 36.5752 19.048C36.0152 19.176 35.3992 19.24 34.7272 19.24C33.9432 19.24 33.2392 19.112 32.6152 18.856C32.0072 18.6 31.5192 18.16 31.1512 17.536C30.7992 16.896 30.6232 16.016 30.6232 14.896V8.584H28.9192V7.072L30.8872 5.872L31.9192 3.112H34.1992V5.896H37.8712V8.584H34.1992V14.896C34.1992 15.392 34.3432 15.768 34.6312 16.024C34.9192 16.264 35.2952 16.384 35.7592 16.384ZM46.0214 5.632C47.7814 5.632 49.1254 6.016 50.0534 6.784C50.9974 7.536 51.4694 8.696 51.4694 10.264V19H48.9734L48.2774 17.224H48.1814C47.8134 17.688 47.4294 18.072 47.0294 18.376C46.6454 18.68 46.1974 18.896 45.6854 19.024C45.1894 19.168 44.5734 19.24 43.8374 19.24C43.0694 19.24 42.3734 19.096 41.7494 18.808C41.1414 18.504 40.6614 18.048 40.3094 17.44C39.9574 16.816 39.7814 16.032 39.7814 15.088C39.7814 13.696 40.2694 12.672 41.2454 12.016C42.2214 11.344 43.6854 10.976 45.6374 10.912L47.9174 10.84V10.264C47.9174 9.576 47.7334 9.072 47.3654 8.752C47.0134 8.432 46.5174 8.272 45.8774 8.272C45.2374 8.272 44.6134 8.368 44.0054 8.56C43.3974 8.736 42.7894 8.96 42.1814 9.232L41.0054 6.808C41.7094 6.44 42.4854 6.152 43.3334 5.944C44.1974 5.736 45.0934 5.632 46.0214 5.632ZM46.5254 12.976C45.3734 13.008 44.5734 13.216 44.1254 13.6C43.6774 13.984 43.4534 14.488 43.4534 15.112C43.4534 15.656 43.6134 16.048 43.9334 16.288C44.2534 16.512 44.6694 16.624 45.1814 16.624C45.9494 16.624 46.5974 16.4 47.1254 15.952C47.6534 15.488 47.9174 14.84 47.9174 14.008V12.928L46.5254 12.976Z" fill="black"/>
</svg>
